<?xml version="1.0" encoding="UTF-8" standalone="no"?><!DOCTYPE svg PUBLIC "-//W3C//DTD SVG 1.1//EN" "http://www.w3.org/Graphics/SVG/1.1/DTD/svg11.dtd"><svg width="100%" height="100%" viewBox="0 0 441 165" version="1.1" xmlns="http://www.w3.org/2000/svg" xmlns:xlink="http://www.w3.org/1999/xlink" xml:space="preserve" xmlns:serif="http://www.serif.com/" style="fill-rule:evenodd;clip-rule:evenodd;stroke-linecap:round;stroke-linejoin:round;stroke-miterlimit:1.5;"><rect id="Artboard1" x="0" y="0" width="440.853" height="164.812" style="fill:none;"/><g><path d="M119.126,76.869l-5.419,43.559l187.868,23.374l2.486,-19.981" style="fill:none;stroke:#ffb915;stroke-width:6.5px;"/><path d="M309.736,78.211l4.994,-40.14l-187.868,-23.374l-3.035,24.395" style="fill:none;stroke:#ffb915;stroke-width:6.5px;"/></g><g><path d="M275.618,21.219l-188.903,12.506l0.514,7.759" style="fill:none;stroke:#f53;stroke-width:5.5px;"/><path d="M89.539,76.381l4.214,63.657l188.903,-12.505l-0.681,-10.293" style="fill:none;stroke:#f53;stroke-width:5.5px;"/><path d="M277.141,44.224l-1.523,-23.005" style="fill:none;stroke:#f53;stroke-width:5.5px;"/><path d="M279.507,79.956l-1.115,-16.833" style="fill:none;stroke:#f53;stroke-width:5.5px;"/></g><path d="M42.124,52.55l9.378,8.505l-4.574,5.103l-14.183,-13.332l13.861,-14.412l4.942,4.666l-9.424,9.47Z" style="fill:#fb1900;fill-rule:nonzero;"/><path d="M80.075,70.48l-1.518,0l-2.436,-3.379c-0.598,0.536 -1.23,1.038 -1.897,1.505c-0.666,0.468 -1.367,0.874 -2.103,1.219c-0.735,0.345 -1.49,0.617 -2.264,0.816c-0.774,0.199 -1.559,0.299 -2.356,0.299c-1.732,0 -3.36,-0.292 -4.885,-0.874c-1.525,-0.582 -2.858,-1.429 -3.999,-2.54c-1.142,-1.111 -2.042,-2.471 -2.701,-4.08c-0.659,-1.609 -0.989,-3.44 -0.989,-5.494c0,-1.915 0.33,-3.674 0.989,-5.275c0.659,-1.602 1.559,-2.977 2.701,-4.126c1.141,-1.15 2.474,-2.042 3.999,-2.678c1.525,-0.636 3.153,-0.954 4.885,-0.954c0.797,0 1.586,0.099 2.367,0.299c0.782,0.199 1.541,0.475 2.276,0.827c0.736,0.353 1.437,0.766 2.103,1.241c0.667,0.475 1.291,0.989 1.874,1.541l2.436,-2.92l1.518,0l0,24.573Zm-6.322,-12.528c0,-0.858 -0.165,-1.689 -0.494,-2.494c-0.329,-0.804 -0.778,-1.517 -1.345,-2.138c-0.567,-0.62 -1.23,-1.118 -1.988,-1.494c-0.759,-0.375 -1.567,-0.563 -2.425,-0.563c-0.858,0 -1.667,0.146 -2.425,0.437c-0.759,0.291 -1.418,0.72 -1.977,1.287c-0.559,0.567 -1,1.268 -1.322,2.103c-0.322,0.836 -0.483,1.789 -0.483,2.862c0,1.073 0.161,2.027 0.483,2.862c0.322,0.835 0.763,1.536 1.322,2.103c0.559,0.567 1.218,0.996 1.977,1.288c0.758,0.291 1.567,0.436 2.425,0.436c0.858,0 1.666,-0.187 2.425,-0.563c0.758,-0.375 1.421,-0.873 1.988,-1.494c0.567,-0.621 1.016,-1.333 1.345,-2.138c0.329,-0.804 0.494,-1.636 0.494,-2.494Z" style="fill:#fb1900;fill-rule:nonzero;"/><path d="M91.131,70.48l-6.275,0l0,-24.619l1.517,0l2.069,2.391c1.011,-0.92 2.157,-1.628 3.436,-2.126c1.28,-0.498 2.617,-0.747 4.011,-0.747c1.502,0 2.92,0.287 4.253,0.862c1.333,0.574 2.498,1.363 3.494,2.367c0.996,1.004 1.781,2.176 2.356,3.517c0.575,1.341 0.862,2.77 0.862,4.287l0,14.068l-6.275,0l0,-14.068c0,-0.644 -0.123,-1.253 -0.368,-1.827c-0.245,-0.575 -0.583,-1.077 -1.012,-1.506c-0.429,-0.429 -0.927,-0.766 -1.494,-1.011c-0.567,-0.246 -1.172,-0.368 -1.816,-0.368c-0.659,0 -1.279,0.122 -1.862,0.368c-0.582,0.245 -1.088,0.582 -1.517,1.011c-0.429,0.429 -0.766,0.931 -1.011,1.506c-0.245,0.574 -0.368,1.183 -0.368,1.827l0,14.068Z" style="fill:#fb1900;fill-rule:nonzero;"/><path d="M118.715,39.172c0,0.582 -0.111,1.126 -0.333,1.632c-0.223,0.506 -0.525,0.946 -0.908,1.322c-0.383,0.375 -0.832,0.674 -1.345,0.896c-0.513,0.223 -1.061,0.334 -1.644,0.334c-0.582,0 -1.13,-0.111 -1.643,-0.334c-0.514,-0.222 -0.958,-0.521 -1.333,-0.896c-0.376,-0.376 -0.675,-0.816 -0.897,-1.322c-0.222,-0.506 -0.333,-1.05 -0.333,-1.632c0,-0.567 0.111,-1.107 0.333,-1.62c0.222,-0.514 0.521,-0.958 0.897,-1.334c0.375,-0.375 0.819,-0.674 1.333,-0.896c0.513,-0.222 1.061,-0.333 1.643,-0.333c0.583,0 1.131,0.111 1.644,0.333c0.513,0.222 0.962,0.521 1.345,0.896c0.383,0.376 0.685,0.82 0.908,1.334c0.222,0.513 0.333,1.053 0.333,1.62Zm-1.08,31.308l-6.322,0l0,-24.619l6.322,0l0,24.619Z" style="fill:#fb1900;fill-rule:nonzero;"/><path d="M153.723,70.48l-6.252,0l0,-15.631c0,-0.429 -0.08,-0.835 -0.241,-1.218c-0.161,-0.383 -0.387,-0.721 -0.678,-1.012c-0.292,-0.291 -0.629,-0.517 -1.012,-0.678c-0.383,-0.161 -0.789,-0.241 -1.218,-0.241c-0.429,0 -0.831,0.08 -1.207,0.241c-0.375,0.161 -0.705,0.387 -0.988,0.678c-0.284,0.291 -0.506,0.629 -0.667,1.012c-0.161,0.383 -0.241,0.789 -0.241,1.218l0,15.631l-6.276,0l0,-15.631c0,-0.429 -0.08,-0.835 -0.241,-1.218c-0.161,-0.383 -0.387,-0.721 -0.678,-1.012c-0.291,-0.291 -0.628,-0.517 -1.011,-0.678c-0.384,-0.161 -0.79,-0.241 -1.219,-0.241c-0.429,0 -0.831,0.08 -1.207,0.241c-0.375,0.161 -0.704,0.387 -0.988,0.678c-0.283,0.291 -0.506,0.629 -0.667,1.012c-0.16,0.383 -0.241,0.789 -0.241,1.218l0,15.631l-6.275,0l0,-24.619l1.517,0l1.701,1.885c0.873,-0.735 1.835,-1.306 2.885,-1.712c1.049,-0.406 2.141,-0.61 3.275,-0.61c1.15,0 2.272,0.215 3.368,0.644c1.096,0.429 2.057,1.172 2.885,2.23c0.383,-0.521 0.819,-0.966 1.31,-1.333c0.49,-0.368 1.007,-0.667 1.551,-0.897c0.544,-0.23 1.108,-0.394 1.69,-0.494c0.582,-0.1 1.157,-0.15 1.724,-0.15c1.303,0 2.525,0.246 3.666,0.736c1.142,0.49 2.138,1.161 2.989,2.011c0.85,0.851 1.521,1.851 2.011,3c0.49,1.149 0.735,2.375 0.735,3.678l0,15.631Z" style="fill:#fb1900;fill-rule:nonzero;"/><path d="M182.135,70.48l-1.517,0l-2.437,-3.379c-0.597,0.536 -1.23,1.038 -1.896,1.505c-0.667,0.468 -1.368,0.874 -2.103,1.219c-0.736,0.345 -1.491,0.617 -2.265,0.816c-0.774,0.199 -1.559,0.299 -2.356,0.299c-1.731,0 -3.36,-0.292 -4.884,-0.874c-1.525,-0.582 -2.858,-1.429 -4,-2.54c-1.142,-1.111 -2.042,-2.471 -2.701,-4.08c-0.659,-1.609 -0.988,-3.44 -0.988,-5.494c0,-1.915 0.329,-3.674 0.988,-5.275c0.659,-1.602 1.559,-2.977 2.701,-4.126c1.142,-1.15 2.475,-2.042 4,-2.678c1.524,-0.636 3.153,-0.954 4.884,-0.954c0.797,0 1.586,0.099 2.368,0.299c0.781,0.199 1.54,0.475 2.275,0.827c0.736,0.353 1.437,0.766 2.104,1.241c0.666,0.475 1.291,0.989 1.873,1.541l2.437,-2.92l1.517,0l0,24.573Zm-6.321,-12.528c0,-0.858 -0.165,-1.689 -0.495,-2.494c-0.329,-0.804 -0.777,-1.517 -1.344,-2.138c-0.567,-0.62 -1.23,-1.118 -1.989,-1.494c-0.758,-0.375 -1.567,-0.563 -2.425,-0.563c-0.858,0 -1.666,0.146 -2.425,0.437c-0.758,0.291 -1.417,0.72 -1.977,1.287c-0.559,0.567 -1,1.268 -1.321,2.103c-0.322,0.836 -0.483,1.789 -0.483,2.862c0,1.073 0.161,2.027 0.483,2.862c0.321,0.835 0.762,1.536 1.321,2.103c0.56,0.567 1.219,0.996 1.977,1.288c0.759,0.291 1.567,0.436 2.425,0.436c0.858,0 1.667,-0.187 2.425,-0.563c0.759,-0.375 1.422,-0.873 1.989,-1.494c0.567,-0.621 1.015,-1.333 1.344,-2.138c0.33,-0.804 0.495,-1.636 0.495,-2.494Z" style="fill:#fb1900;fill-rule:nonzero;"/><path d="M199.26,70.48c-1.517,0 -2.942,-0.287 -4.276,-0.862c-1.333,-0.575 -2.501,-1.364 -3.505,-2.368c-1.004,-1.004 -1.793,-2.172 -2.368,-3.505c-0.574,-1.333 -0.862,-2.759 -0.862,-4.276l0,-7.309l-3.057,0l0,-6.253l3.057,0l0,-9.838l6.253,0l0,9.838l9.516,0l0,6.253l-9.516,0l0,7.309c0,0.659 0.122,1.276 0.367,1.851c0.246,0.574 0.583,1.076 1.012,1.505c0.429,0.429 0.935,0.77 1.517,1.023c0.582,0.253 1.203,0.38 1.862,0.38l4.758,0l0,6.252l-4.758,0Z" style="fill:#fb1900;fill-rule:nonzero;"/><path d="M217.327,64.457c0.245,0.077 0.491,0.127 0.736,0.15c0.245,0.023 0.49,0.034 0.735,0.034c0.613,0 1.203,-0.084 1.77,-0.253c0.567,-0.168 1.1,-0.41 1.598,-0.724c0.498,-0.314 0.942,-0.697 1.333,-1.149c0.391,-0.452 0.709,-0.954 0.954,-1.506l4.597,4.621c-0.582,0.827 -1.252,1.57 -2.011,2.229c-0.758,0.659 -1.578,1.219 -2.459,1.678c-0.882,0.46 -1.809,0.809 -2.782,1.046c-0.973,0.238 -1.973,0.357 -3,0.357c-1.731,0 -3.359,-0.322 -4.884,-0.966c-1.525,-0.643 -2.858,-1.54 -4,-2.689c-1.142,-1.15 -2.042,-2.517 -2.701,-4.103c-0.659,-1.586 -0.988,-3.33 -0.988,-5.23c0,-1.946 0.329,-3.724 0.988,-5.333c0.659,-1.609 1.559,-2.98 2.701,-4.114c1.142,-1.134 2.475,-2.015 4,-2.644c1.525,-0.628 3.153,-0.942 4.884,-0.942c1.027,0 2.031,0.122 3.012,0.368c0.98,0.245 1.911,0.597 2.793,1.057c0.881,0.46 1.704,1.023 2.471,1.689c0.766,0.667 1.44,1.414 2.022,2.242l-11.769,14.182Zm3.218,-12.941c-0.291,-0.107 -0.578,-0.176 -0.862,-0.207c-0.283,-0.031 -0.578,-0.046 -0.885,-0.046c-0.858,0 -1.666,0.157 -2.425,0.471c-0.758,0.314 -1.417,0.763 -1.976,1.345c-0.56,0.582 -1,1.283 -1.322,2.103c-0.322,0.82 -0.483,1.743 -0.483,2.77c0,0.23 0.012,0.491 0.035,0.782c0.023,0.291 0.061,0.586 0.114,0.885c0.054,0.299 0.119,0.586 0.196,0.862c0.076,0.276 0.176,0.521 0.299,0.735l7.309,-9.7Z" style="fill:#fb1900;fill-rule:nonzero;"/><path d="M255.853,70.48l-1.517,0l-2.437,-3.379c-0.598,0.536 -1.23,1.038 -1.896,1.505c-0.667,0.468 -1.368,0.874 -2.104,1.219c-0.735,0.345 -1.49,0.617 -2.264,0.816c-0.774,0.199 -1.559,0.299 -2.356,0.299c-1.732,0 -3.36,-0.326 -4.885,-0.977c-1.524,-0.652 -2.858,-1.556 -3.999,-2.713c-1.142,-1.157 -2.042,-2.528 -2.701,-4.114c-0.659,-1.586 -0.989,-3.314 -0.989,-5.184c0,-1.854 0.33,-3.578 0.989,-5.172c0.659,-1.594 1.559,-2.973 2.701,-4.137c1.141,-1.165 2.475,-2.077 3.999,-2.736c1.525,-0.659 3.153,-0.988 4.885,-0.988c0.552,0 1.123,0.046 1.713,0.138c0.59,0.092 1.164,0.241 1.724,0.448c0.559,0.207 1.084,0.479 1.574,0.816c0.491,0.337 0.904,0.751 1.241,1.241l0,-11.493l6.322,0l0,34.411Zm-6.322,-12.528c0,-0.858 -0.164,-1.689 -0.494,-2.494c-0.329,-0.804 -0.777,-1.517 -1.344,-2.138c-0.567,-0.62 -1.23,-1.118 -1.989,-1.494c-0.758,-0.375 -1.567,-0.563 -2.425,-0.563c-0.858,0 -1.666,0.153 -2.425,0.46c-0.759,0.306 -1.417,0.747 -1.977,1.322c-0.559,0.574 -1,1.275 -1.322,2.103c-0.321,0.827 -0.482,1.762 -0.482,2.804c0,0.904 0.161,1.762 0.482,2.575c0.322,0.812 0.763,1.524 1.322,2.137c0.56,0.613 1.218,1.096 1.977,1.449c0.759,0.352 1.567,0.528 2.425,0.528c0.858,0 1.667,-0.187 2.425,-0.563c0.759,-0.375 1.422,-0.873 1.989,-1.494c0.567,-0.621 1.015,-1.333 1.344,-2.138c0.33,-0.804 0.494,-1.636 0.494,-2.494Z" style="fill:#fb1900;fill-rule:nonzero;"/><rect x="261.025" y="50.711" width="19.309" height="6.252" style="fill:#fb1900;fill-rule:nonzero;"/><path d="M235.888,119.816l-6.321,0l0,-33.997l1.517,0l2.506,2.965c0.567,-0.536 1.187,-1.042 1.861,-1.517c0.675,-0.475 1.376,-0.885 2.104,-1.23c0.728,-0.345 1.482,-0.617 2.264,-0.816c0.781,-0.199 1.571,-0.299 2.367,-0.299c1.732,0 3.36,0.311 4.885,0.931c1.525,0.621 2.858,1.498 4,2.632c1.141,1.134 2.042,2.502 2.701,4.103c0.659,1.602 0.988,3.376 0.988,5.322c0,2.023 -0.329,3.842 -0.988,5.459c-0.659,1.617 -1.56,2.988 -2.701,4.115c-1.142,1.126 -2.475,1.988 -4,2.586c-1.525,0.597 -3.153,0.896 -4.885,0.896c-0.551,0 -1.099,-0.061 -1.643,-0.184c-0.544,-0.122 -1.08,-0.287 -1.609,-0.494c-0.529,-0.207 -1.05,-0.441 -1.563,-0.701c-0.514,-0.261 -1.008,-0.529 -1.483,-0.805l0,11.034Zm12.574,-21.906c0,-1.042 -0.165,-1.977 -0.494,-2.805c-0.33,-0.827 -0.778,-1.528 -1.345,-2.103c-0.567,-0.574 -1.234,-1.015 -2,-1.322c-0.766,-0.306 -1.578,-0.459 -2.437,-0.459c-0.858,0 -1.666,0.153 -2.425,0.459c-0.758,0.307 -1.421,0.748 -1.988,1.322c-0.567,0.575 -1.015,1.276 -1.345,2.103c-0.329,0.828 -0.494,1.763 -0.494,2.805c0,0.996 0.165,1.908 0.494,2.735c0.33,0.828 0.778,1.533 1.345,2.115c0.567,0.582 1.23,1.034 1.988,1.356c0.759,0.322 1.567,0.483 2.425,0.483c0.859,0 1.671,-0.161 2.437,-0.483c0.766,-0.322 1.433,-0.774 2,-1.356c0.567,-0.582 1.015,-1.287 1.345,-2.115c0.329,-0.827 0.494,-1.739 0.494,-2.735Z" style="fill:#fb1900;fill-rule:nonzero;"/><path d="M282.068,110.437l-1.517,0l-2.437,-3.379c-0.597,0.537 -1.229,1.039 -1.896,1.506c-0.667,0.467 -1.368,0.874 -2.103,1.218c-0.736,0.345 -1.49,0.617 -2.264,0.816c-0.774,0.2 -1.56,0.299 -2.356,0.299c-1.732,0 -3.36,-0.291 -4.885,-0.873c-1.525,-0.583 -2.858,-1.429 -4,-2.54c-1.141,-1.111 -2.042,-2.471 -2.701,-4.08c-0.659,-1.609 -0.988,-3.441 -0.988,-5.494c0,-1.916 0.329,-3.674 0.988,-5.276c0.659,-1.601 1.56,-2.976 2.701,-4.126c1.142,-1.149 2.475,-2.042 4,-2.678c1.525,-0.636 3.153,-0.954 4.885,-0.954c0.796,0 1.586,0.1 2.367,0.299c0.782,0.199 1.54,0.475 2.276,0.828c0.735,0.352 1.436,0.766 2.103,1.241c0.667,0.475 1.291,0.988 1.873,1.54l2.437,-2.919l1.517,0l0,24.572Zm-6.321,-12.527c0,-0.858 -0.165,-1.69 -0.494,-2.494c-0.33,-0.805 -0.778,-1.517 -1.345,-2.138c-0.567,-0.621 -1.23,-1.119 -1.988,-1.494c-0.759,-0.376 -1.567,-0.563 -2.425,-0.563c-0.859,0 -1.667,0.145 -2.426,0.436c-0.758,0.292 -1.417,0.721 -1.976,1.288c-0.56,0.567 -1,1.268 -1.322,2.103c-0.322,0.835 -0.483,1.789 -0.483,2.862c0,1.073 0.161,2.026 0.483,2.862c0.322,0.835 0.762,1.536 1.322,2.103c0.559,0.567 1.218,0.996 1.976,1.287c0.759,0.291 1.567,0.437 2.426,0.437c0.858,0 1.666,-0.188 2.425,-0.563c0.758,-0.376 1.421,-0.874 1.988,-1.494c0.567,-0.621 1.015,-1.334 1.345,-2.138c0.329,-0.805 0.494,-1.636 0.494,-2.494Z" style="fill:#fb1900;fill-rule:nonzero;"/><path d="M304.365,97.91c0,-0.858 -0.165,-1.69 -0.494,-2.494c-0.33,-0.805 -0.778,-1.517 -1.345,-2.138c-0.567,-0.621 -1.23,-1.119 -1.988,-1.494c-0.759,-0.376 -1.567,-0.563 -2.425,-0.563c-0.858,0 -1.667,0.145 -2.425,0.436c-0.759,0.292 -1.418,0.721 -1.977,1.288c-0.559,0.567 -1,1.268 -1.322,2.103c-0.322,0.835 -0.483,1.789 -0.483,2.862c0,1.027 0.161,1.95 0.483,2.77c0.322,0.82 0.763,1.521 1.322,2.103c0.559,0.582 1.218,1.031 1.977,1.345c0.758,0.314 1.567,0.471 2.425,0.471c0.858,0 1.666,-0.188 2.425,-0.563c0.758,-0.376 1.421,-0.874 1.988,-1.494c0.567,-0.621 1.015,-1.334 1.345,-2.138c0.329,-0.805 0.494,-1.636 0.494,-2.494Zm6.321,9.424c0,1.732 -0.329,3.356 -0.988,4.873c-0.659,1.518 -1.559,2.843 -2.701,3.977c-1.142,1.134 -2.475,2.031 -4,2.69c-1.524,0.658 -3.153,0.988 -4.884,0.988l-3.149,-0.046l0,-6.275l3.103,0.046c0.981,0 1.816,-0.127 2.505,-0.38c0.69,-0.252 1.272,-0.597 1.747,-1.034c0.475,-0.437 0.855,-0.939 1.138,-1.506c0.284,-0.567 0.51,-1.164 0.678,-1.793c-0.245,0.399 -0.597,0.724 -1.057,0.977c-0.46,0.253 -0.969,0.46 -1.529,0.621c-0.559,0.161 -1.141,0.272 -1.747,0.333c-0.605,0.062 -1.168,0.092 -1.689,0.092c-1.732,0 -3.36,-0.299 -4.885,-0.896c-1.525,-0.598 -2.858,-1.452 -4,-2.563c-1.141,-1.111 -2.041,-2.471 -2.7,-4.08c-0.659,-1.609 -0.989,-3.425 -0.989,-5.448c0,-1.854 0.33,-3.578 0.989,-5.172c0.659,-1.594 1.559,-2.973 2.7,-4.138c1.142,-1.164 2.475,-2.076 4,-2.735c1.525,-0.659 3.153,-0.989 4.885,-0.989c0.797,0 1.586,0.1 2.367,0.299c0.782,0.199 1.541,0.475 2.276,0.828c0.736,0.352 1.437,0.766 2.103,1.241c0.667,0.475 1.291,0.988 1.874,1.54l2.436,-2.919l1.517,0l0,21.469Z" style="fill:#fb1900;fill-rule:nonzero;"/><path d="M325.26,104.415c0.245,0.077 0.49,0.126 0.736,0.149c0.245,0.023 0.49,0.035 0.735,0.035c0.613,0 1.203,-0.084 1.77,-0.253c0.567,-0.169 1.1,-0.41 1.598,-0.724c0.498,-0.314 0.942,-0.697 1.333,-1.149c0.391,-0.452 0.709,-0.954 0.954,-1.506l4.597,4.62c-0.582,0.828 -1.253,1.571 -2.011,2.23c-0.759,0.659 -1.579,1.218 -2.46,1.678c-0.881,0.46 -1.808,0.808 -2.781,1.046c-0.973,0.237 -1.973,0.356 -3,0.356c-1.732,0 -3.36,-0.322 -4.885,-0.965c-1.524,-0.644 -2.858,-1.54 -3.999,-2.69c-1.142,-1.149 -2.042,-2.517 -2.701,-4.103c-0.659,-1.586 -0.989,-3.329 -0.989,-5.229c0,-1.946 0.33,-3.724 0.989,-5.333c0.659,-1.609 1.559,-2.981 2.701,-4.115c1.141,-1.134 2.475,-2.015 3.999,-2.643c1.525,-0.628 3.153,-0.943 4.885,-0.943c1.027,0 2.031,0.123 3.011,0.368c0.981,0.245 1.912,0.598 2.793,1.058c0.881,0.459 1.705,1.022 2.471,1.689c0.766,0.667 1.441,1.414 2.023,2.241l-11.769,14.183Zm3.218,-12.941c-0.291,-0.108 -0.578,-0.177 -0.862,-0.207c-0.283,-0.031 -0.578,-0.046 -0.885,-0.046c-0.858,0 -1.666,0.157 -2.425,0.471c-0.759,0.314 -1.418,0.762 -1.977,1.345c-0.559,0.582 -1,1.283 -1.322,2.103c-0.321,0.82 -0.482,1.743 -0.482,2.77c0,0.23 0.011,0.49 0.034,0.781c0.023,0.292 0.061,0.587 0.115,0.885c0.054,0.299 0.119,0.586 0.195,0.862c0.077,0.276 0.177,0.521 0.299,0.736l7.31,-9.7Z" style="fill:#fb1900;fill-rule:nonzero;"/><path d="M353.694,110.437l-14.343,0l0,-6.252l14.343,0c0.429,0 0.797,-0.153 1.104,-0.46c0.306,-0.306 0.459,-0.674 0.459,-1.103c0,-0.444 -0.153,-0.736 -0.459,-0.873c-0.307,-0.138 -0.675,-0.207 -1.104,-0.207l-6.528,0c-1.088,0 -2.107,-0.207 -3.057,-0.621c-0.95,-0.414 -1.778,-0.977 -2.483,-1.689c-0.705,-0.713 -1.26,-1.544 -1.666,-2.495c-0.406,-0.95 -0.609,-1.969 -0.609,-3.057c0,-1.088 0.203,-2.107 0.609,-3.057c0.406,-0.95 0.961,-1.778 1.666,-2.482c0.705,-0.705 1.533,-1.261 2.483,-1.667c0.95,-0.406 1.969,-0.609 3.057,-0.609l12.712,0l0,6.252l-12.712,0c-0.429,0 -0.797,0.153 -1.103,0.46c-0.307,0.306 -0.46,0.674 -0.46,1.103c0,0.445 0.153,0.824 0.46,1.138c0.306,0.314 0.674,0.471 1.103,0.471l6.528,0c1.073,0 2.084,0.18 3.035,0.541c0.95,0.36 1.777,0.862 2.482,1.505c0.705,0.644 1.264,1.418 1.678,2.322c0.414,0.904 0.621,1.892 0.621,2.965c0,1.088 -0.207,2.103 -0.621,3.046c-0.414,0.942 -0.973,1.77 -1.678,2.482c-0.705,0.713 -1.532,1.272 -2.482,1.678c-0.951,0.406 -1.962,0.609 -3.035,0.609Z" style="fill:#fb1900;fill-rule:nonzero;"/><path d="M364.751,83.037l4.942,-4.666l13.861,14.413l-14.183,13.332l-4.574,-5.103l9.378,-8.505l-9.424,-9.471Z" style="fill:#fb1900;fill-rule:nonzero;"/></svg>